<svg version="1.0" xmlns="http://www.w3.org/2000/svg" width="80" height="30" viewBox="0 0 784 377"><path d="M543 23.5V47H410v81h46c25.7 0 46 .4 46 .9 0 1.2-14.2 21.4-20.9 29.5-11 13.6-23.4 26.8-34.9 37.2-11.9 10.8-33.6 27.6-44.9 34.9-3.5 2.2-6.3 4.3-6.3 4.6 0 .5 39.9 89.2 40.4 89.6.4.5 14.9-9.7 21.6-15.3 3.6-2.9 10.5-8.9 15.3-13.4l8.6-8.1.3 15.8.3 15.8 30.6.3 30.5.2-.3 11.8c-.2 6.4-.4 17.4-.6 24.5l-.3 12.7h95.1l-.2-10.7c-.2-6-.4-17-.6-24.5l-.3-13.8 30.6-.2 30.5-.3.3-17.1.2-17 11.2 10.8c10.2 9.9 19.3 17.6 30.4 25.7l4 3 20.4-45c11.6-25.6 19.9-45.3 19.4-45.8-.5-.4-4.7-3.5-9.4-6.8-28.5-20.4-62.2-53.8-89.1-88.3l-8.2-10.5 46.2-.3 46.1-.2V47H635V0h-92v23.5zm112.9 209 8.1 12-14.7.3c-8 .1-14.7.1-14.9-.1s-.7-11.4-1-24.8l-.6-24.4 7.5 12.5c4.2 6.9 11.2 17.9 15.6 24.5zm-111.4-6.8-.7 19.3h-13.9c-7.6 0-13.9-.2-13.9-.5s2.2-3.8 4.8-7.8c5.9-8.7 15.6-24.9 20.3-33.7l3.4-6.5.3 5c.2 2.8.1 13.7-.3 24.2zM37 51.5V97H5v70.9l15.8.3 15.7.3.3 41.6.2 41.7-6.8 2.1c-3.7 1.1-12 3.5-18.4 5.2-10.6 3-11.7 3.5-11.3 5.3.3 1.2 3 18.3 6 38.1 3.1 19.8 5.8 36.6 6 37.2.9 2.8 60.5-20 92.4-35.3 7.4-3.5 13.5-6.4 13.7-6.4.6 0-6.8 16.6-9.7 21.6-1.6 2.8-2.9 5.4-2.9 5.7 0 .8 60.5 49.6 62.3 50.3 1 .3 3.5-4.2 8.7-15.3 7-15.1 18-43 18-45.5 0-3.3 2.6 3.1 12.1 29.7 5.6 16 10.6 29.4 11 29.9s6-2.6 12.4-6.8c16.6-11.1 29.6-21.6 48.7-39.5l3.7-3.4 12.3 11.9c17.7 17.1 48 40.7 49.9 38.7.7-.9 31.9-83.1 31.9-84.3 0-.4-1.4-1.3-3.1-2-7.7-3.2-35.2-20.8-42.2-27-.4-.4 2.8-7.9 7.2-16.8 8.7-17.9 14.5-33.2 18.5-49.2 5.1-20.5 5.3-23 4-53-.7-15.1-1.3-30.1-1.3-33.3l-.1-5.7H221V84h147V9H147v42.7c0 77.8-2.8 130.1-9.1 172.6-2.8 19.3-3.5 20.3-4.3 6.7-.4-6.3-1-13-1.3-14.8l-.5-3.2-3.2 1.9c-1.7 1.1-6.2 3.3-9.9 5l-6.7 3V168h26V97h-26V6H37v45.5zm257 128.4c-2.3 8.2-5 15.2-8.6 22.3l-2.7 5.2-4.5-8.9c-3.7-7.5-10.2-23.3-10.2-25 0-.3 6.3-.5 13.9-.5h14l-1.9 6.9zm-76 32.8c1.6 6.6 11.4 31.2 16.2 40.7 2.2 4.3 3.6 8.2 3.1 8.6-6 5.4-31.8 21.8-32.8 20.9-.2-.3.7-5.9 2-12.4 2.7-13.4 7.1-42.9 8.1-54.8.4-4.2 1-7.7 1.4-7.7s1.3 2.1 2 4.7z"/></svg>